# xmcd CD database file
#
# Track frame offsets:
#	150
#	19910
#	36925
#	51135
#	64896
#	78236
#	89597
#	99007
#	109122
#	124337
#	143347
#	160572
#	178187
#
# Disc length: 2558 seconds
#
# Revision: 0
# Processed by: cddbd v1.5.2PL0 Copyright (c) Steve Scherf et al.
# Submitted via: CDex 1.70beta2
#
DISCID=a209fc0d
DTITLE=Nils Farstad - Steelfavoritter
DYEAR=1990
DGENRE=Country
TTITLE0=Keep it country
TTITLE1=Blue eyes crying
TTITLE2=Aura Lee
TTITLE3=Bare minner igjen
TTITLE4=Song for Sara
TTITLE5=Crazy arms
TTITLE6=Steel guitar rag
TTITLE7=Amazing Grace
TTITLE8=Mansion on the Hill
TTITLE9=The waltz you saved for me
TTITLE10=Blue Jade
TTITLE11=Are you lonesome tonight
TTITLE12=Bonusspor
EXTD=YEAR: 1990
EXTT0=
EXTT1=
EXTT2=
EXTT3=
EXTT4=
EXTT5=
EXTT6=
EXTT7=
EXTT8=
EXTT9=
EXTT10=
EXTT11=
EXTT12=
PLAYORDER=
